Coordinates
version=1
nRows=12
nColumns=34
inDegrees=yes

Units are S.I. units (second, meters, Newtons, ...)
If the header above contains a line with 'inDegrees', this indicates whether rotational values are in degrees (yes) or radians (no).

endheader
time	pelvis_tilt	pelvis_list	pelvis_rotation	pelvis_tx	pelvis_ty	pelvis_tz	hip_flexion_r	hip_adduction_r	hip_rotation_r	knee_angle_r	ankle_angle_r	subtalar_angle_r	mtp_angle_r	hip_flexion_l	hip_adduction_l	hip_rotation_l	knee_angle_l	ankle_angle_l	subtalar_angle_l	mtp_angle_l	lumbar_extension	lumbar_bending	lumbar_rotation	arm_flex_r	arm_add_r	arm_rot_r	elbow_flex_r	pro_sup_r	arm_flex_l	arm_add_l	arm_rot_l	elbow_flex_l	pro_sup_l
      1.10000000	      0.59411844	     -5.35396547	      6.36465891	     -0.26885097	      0.91471315	      0.22185860	     10.51962063	     10.39121039	     -4.35865710	    -17.86984482	      5.60288847	     -3.40179182	      5.98663358	     12.68832546	     -4.03506355	      4.79093732	    -61.77946423	     -6.25946551	     -6.03969556	     28.65206107	     -5.12728057	      8.01347653	     -5.15484239	     -4.42414288	    -17.04307489	      8.04389318	     21.11908565	     90.00000000	      3.24655464	    -13.96211189	     21.38540167	     24.49246103	     90.00000000
      1.11000000	      0.52225694	     -4.84436618	      6.26797465	     -0.25603713	      0.91672743	      0.22174712	      9.18980980	      9.87262609	     -4.59753406	    -17.14160764	      6.40107421	     -2.04482383	      5.40226781	     14.34309924	     -3.23116755	      4.81160946	    -61.48538243	     -4.63108983	     -6.85609891	     28.24312545	     -5.18330581	      7.41671421	     -4.61485855	     -4.11339155	    -17.25454215	      8.56430962	     21.98545466	     90.00000000	      3.35806766	    -13.68910637	     23.01187753	     22.19927040	     90.00000000
      1.12000000	      0.37883486	     -4.32481350	      6.06618483	     -0.24329361	      0.91850599	      0.22192078	      7.87545228	      9.41605867	     -4.37454313	    -16.26175734	      7.13765315	     -1.30089542	      3.97482166	     15.99775507	     -2.51294536	      4.63713840	    -60.92245340	     -3.03933958	     -7.41880579	     27.59672977	     -5.19398525	      6.78320613	     -4.04709550	     -3.83006192	    -17.44679776	      8.74471805	     22.90576551	     90.00000000	      3.12203363	    -13.68234426	     24.47873950	     21.00376218	     90.00000000
      1.13000000	      0.22075927	     -3.84810762	      5.79251119	     -0.23054762	      0.92005839	      0.22231025	      6.58625730	      9.04805945	     -3.80159432	    -15.34824907	      7.45087414	     -1.12283924	      3.88249013	     17.55314636	     -1.95509136	      4.26702696	    -59.94550368	     -1.86623264	     -7.85175004	     27.54657054	     -5.19734584	      6.16943323	     -3.54272647	     -3.44576587	    -17.61969542	      8.81181686	     23.85399122	     90.00000000	      2.59263611	    -13.65687030	     24.21775576	     20.27629898	     90.00000000
      1.14000000	      0.14446533	     -3.28288558	      5.41134847	     -0.21784190	      0.92147271	      0.22273710	      5.21883874	      8.62342392	     -2.94664490	    -14.44226184	      7.75460560	     -1.22295234	      3.65994743	     18.85758990	     -1.38364625	      3.71763936	    -58.54286523	     -1.16148728	     -8.35392507	     27.23021637	     -5.31640758	      5.47407990	     -2.93230218	     -3.05651468	    -17.82179496	      9.10052560	     24.95376268	     90.00000000	      2.21862737	    -13.56594822	     24.28972956	     19.15338994	     90.00000000
      1.15000000	     -0.03689261	     -2.81986409	      5.02594314	     -0.20514621	      0.92233400	      0.22330521	      4.10638037	      8.26711533	     -2.39358269	    -13.74559789	      8.07940864	     -1.24178534	      3.57234083	     20.22746408	     -0.97853232	      3.14014793	    -56.94995055	     -0.37621657	     -8.78504495	     26.93427215	     -5.28109337	      4.86735419	     -2.32973747	     -2.68794755	    -18.06441242	      9.27442995	     25.90925930	     90.00000000	      1.62056544	    -13.63472218	     24.38099086	     18.47881674	     90.00000000
      1.16000000	     -0.25456580	     -2.50905399	      4.83936307	     -0.19240228	      0.92280948	      0.22361307	      2.98432611	      8.05448315	     -2.02244682	    -12.88378442	      8.37435714	     -1.17266798	      3.57164829	     21.59080243	     -0.70153452	      2.76055001	    -55.08812744	      0.09492405	     -8.99378576	     26.84098844	     -5.15057217	      4.44721279	     -2.02565499	     -2.22030318	    -18.27717068	      9.25304309	     26.71483856	     90.00000000	      0.82802938	    -13.77589315	     24.29561341	     18.28016549	     90.00000000
      1.17000000	     -0.24977346	     -1.96395975	      4.21616270	     -0.17992291	      0.92344642	      0.22431602	      1.68083301	      7.61040277	     -1.03085746	    -12.20100668	      8.67350381	     -1.52674635	      3.44844769	     22.43464685	     -0.31053649	      1.96771629	    -52.72207665	      0.48244948	     -9.93370362	     26.20883620	     -5.39396266	      3.77341210	     -1.14596818	     -1.85675628	    -18.61764385	      9.60413030	     27.98383323	     90.00000000	      0.60988002	    -13.66963101	     24.25195610	     16.84832929	     90.00000000
      1.18000000	     -0.20837753	     -1.61649821	      3.82036021	     -0.16721770	      0.92369259	      0.22477514	      0.27873549	      7.33087110	     -0.50590824	    -11.35918146	      8.93660010	     -1.58214334	      3.36436578	     23.19349353	     -0.09832730	      1.41820049	    -50.18317256	      0.76720772	    -10.40855271	     25.53372485	     -5.57782029	      3.33239996	     -0.54884807	     -1.44121640	    -18.92286529	      9.76527770	     29.04852572	     90.00000000	      0.12107811	    -13.66118539	     24.28343257	     16.07592825	     90.00000000
      1.19000000	     -0.16137581	     -1.39475084	      3.47968523	     -0.15451745	      0.92349394	      0.22508647	     -1.15318251	      7.14819574	     -0.15154338	    -10.46454074	      9.30438803	     -1.42457766	      3.32160034	     23.90803224	     -0.00754169	      0.90573481	    -47.47581917	      1.05575126	    -10.83216202	     24.82430375	     -5.76110237	      3.06161265	     -0.07135005	     -0.98895088	    -19.28076309	      9.86660223	     30.14748065	     90.00000000	     -0.40119972	    -13.66789160	     24.30256938	     15.35875405	     90.00000000
      1.20000000	     -0.23934822	     -1.28275679	      3.26900949	     -0.14182990	      0.92279952	      0.22533504	     -2.44786501	      7.07439830	      0.09626770	     -9.55662741	      9.65457376	     -1.16724503	      3.34819157	     24.68271923	      0.02767598	      0.60662979	    -44.55754109	      1.08965261	    -11.05761302	     24.45824348	     -5.78478165	      2.90035543	      0.19913045	     -0.43644413	    -19.53493816	      9.83392772	     31.00824557	     90.00000000	     -1.11011253	    -13.76307050	     24.20380092	     15.07535036	     90.00000000
      1.21000000	      0.34834007	     -0.96768496	      2.90923470	     -0.12889510	      0.92293271	      0.22553463	     -4.46715647	      6.77817345	      0.38346734	     -8.69819754	      9.85724507	     -1.04062866	      3.22317698	     24.43969999	      0.22111919	      0.10482713	    -41.12531269	      0.84807830	    -11.90941063	     23.25254518	     -6.60241518	      2.57526292	      0.75874333	      0.01347761	    -19.92435605	      9.95825405	     32.18396973	     90.00000000	     -1.42443612	    -13.69170263	     24.10407179	     14.13170154	     90.00000000
